Coordinates
nRows=111
nColumns=2
inDegrees=yes
endheader
time	ankle_angle_r	
3.07762	 -0.515188	
3.14919	 -0.532964	
3.22077	 -0.465097	
3.29234	 -0.424158	
3.36391	 -0.460879	
3.43548	 -0.483195	
3.50706	 -0.462898	
3.57863	 -0.443445	
3.6502	 -0.479375	
3.72177	 -0.522753	
3.79335	 -0.500550	
3.86492	 -0.477367	
3.93649	 -0.509986	
4.00806	 -0.528449	
4.07964	 -0.476400	
4.15121	 -0.448069	
4.22278	 -0.500129	
4.29435	 -0.547231	
4.36593	 -0.533065	
4.4375	 -0.506014	
4.50907	 -0.504787	
4.58065	 -0.478589	
4.65222	 -0.434888	
4.72379	 -0.432037	
4.79536	 -0.454356	
4.86694	 -0.437613	
4.93851	 -0.385314	
5.01008	 -0.399863	
5.08165	 -0.449890	
5.15323	 -0.434058	
5.2248	 -0.405301	
5.29637	 -0.433611	
5.36794	 -0.471547	
5.43952	 -0.454959	
5.51109	 -0.427474	
5.58266	 -0.422623	
5.65423	 -0.443268	
5.72581	 -0.457359	
5.79738	 -0.406464	
5.86895	 -0.378314	
5.94052	 -0.417958	
6.0121	 -0.452525	
6.08367	 -0.438172	
6.15524	 -0.440283	
6.22681	 -0.529018	
6.29839	 -0.540030	
6.36996	 -0.446517	
6.44153	 -0.441516	
6.5131	 -0.501968	
6.58468	 -0.493025	
6.65625	 -0.415037	
6.72782	 -0.406478	
6.7994	 -0.490003	
6.87097	 -0.515184	
6.94254	 -0.461311	
7.01411	 -0.454571	
7.08569	 -0.526529	
7.15726	 -0.550966	
7.22883	 -0.487823	
7.3004	 -0.459188	
7.37198	 -0.499736	
7.44355	 -0.504831	
7.51512	 -0.448650	
7.58669	 -0.440166	
7.65827	 -0.471187	
7.72984	 -0.443548	
7.80141	 -0.403031	
7.87298	 -0.419434	
7.94456	 -0.455263	
8.01613	 -0.458608	
8.0877	 -0.440606	
8.15927	 -0.421504	
8.23085	 -0.434316	
8.30242	 -0.472120	
8.37399	 -0.460719	
8.44556	 -0.450453	
8.51714	 -0.485233	
8.58871	 -0.496752	
8.66028	 -0.475764	
8.73185	 -0.470299	
8.80343	 -0.519647	
8.875	 -0.547215	
8.94657	 -0.481453	
9.01815	 -0.434163	
9.08972	 -0.462763	
9.16129	 -0.454888	
9.23286	 -0.392727	
9.30444	 -0.397873	
9.37601	 -0.455480	
9.44758	 -0.463504	
9.51915	 -0.429328	
9.59073	 -0.421553	
9.6623	 -0.464774	
9.73387	 -0.485378	
9.80544	 -0.463690	
9.87702	 -0.460763	
9.94859	 -0.489737	
10.0202	 -0.495217	
10.0917	 -0.452102	
10.1633	 -0.446163	
10.2349	 -0.483746	
10.3065	 -0.504048	
10.378	 -0.493463	
10.4496	 -0.477804	
10.5212	 -0.506878	
10.5927	 -0.520237	
10.6643	 -0.487210	
10.7359	 -0.485964	
10.8075	 -0.529703	
10.879	 -0.556756	
10.9506	 -0.515239	
